ply
format ascii 1.0
comment Created by Blender 2.76 (sub 0) - www.blender.org, source file: 'CastleTrack.blend'
element vertex 150
property float x
property float y
property float z
property float nx
property float ny
property float nz
element face 146
property list uchar uint vertex_indices
end_header
-3.969766 -4.976143 -0.005000 -0.000000 -0.000000 1.000000
5.006615 -4.977008 -0.005000 -0.000000 -0.000000 1.000000
4.987302 5.011111 -0.005000 -0.000000 -0.000000 1.000000
-4.002869 5.020706 -0.005000 -0.000000 -0.000000 1.000000
-0.605925 -0.734423 0.031782 0.009186 -0.003021 0.999939
-0.522683 -0.867359 0.027783 0.090274 0.006165 0.995880
-0.517298 -0.659182 0.033156 0.067385 -0.029054 0.997284
-0.588031 -0.543312 0.033450 -0.020905 0.018281 0.999603
-0.694727 -0.639609 0.043268 -0.073946 0.018738 0.997070
-0.685304 -0.386213 0.015090 -0.047853 0.033113 0.998291
-0.751934 -0.547296 0.023712 -0.152226 0.021149 0.988098
-0.730485 -0.357376 0.024203 -0.090884 0.066744 0.993591
-0.791630 -0.514133 0.008748 -0.211768 -0.006684 0.977264
-0.769968 -0.340840 0.022988 -0.169744 0.097324 0.980651
-0.820000 -0.522826 0.010120 -0.320322 -0.012970 0.947203
-0.788867 -0.332343 0.010447 -0.059389 0.047731 0.997070
-0.835268 -0.480950 0.003770 -0.179876 -0.022675 0.983398
-0.825449 -0.329473 0.015410 -0.162633 0.004364 0.986663
-0.428177 -0.925028 0.009849 0.095096 0.026582 0.995086
-0.211755 -0.858567 0.014041 0.019745 -0.003906 0.999786
-0.415488 -0.764246 0.009616 0.070254 -0.031068 0.997040
-0.850514 -0.480831 -0.000779 -0.250618 -0.017487 0.967925
-0.854756 -0.320756 -0.000447 -0.284921 0.010559 0.958464
-0.390756 -0.615713 0.018950 0.030366 -0.054201 0.998047
-0.514473 -0.430589 0.038392 -0.006745 -0.017151 0.999817
-0.567967 -0.377299 0.033913 -0.103336 0.025330 0.994293
-0.647193 -0.281539 0.018859 -0.062746 -0.001648 0.998016
-0.681508 -0.247224 0.015113 -0.144414 0.222694 0.964110
-0.695156 -0.221726 -0.002969 -0.134465 0.249275 0.959044
-0.703054 -0.206025 0.003195 -0.007202 -0.091067 0.995788
-0.801894 -0.161044 0.003562 -0.096072 0.022767 0.995086
-0.860437 -0.093843 -0.000093 -0.150914 0.081332 0.985168
-0.580223 -0.215106 0.029212 -0.137883 0.279366 0.950224
-0.576290 -0.183761 0.010818 -0.094302 0.384716 0.918180
-0.569026 -0.153395 -0.001710 -0.017945 -0.333567 0.942534
-0.635162 -0.138641 0.033015 -0.008911 0.051210 0.998627
-0.356729 -0.484614 0.028173 -0.009980 -0.071871 0.997345
-0.765714 -0.095559 0.000186 -0.111698 0.185430 0.976287
-0.446517 -0.333671 0.039273 -0.052187 -0.003662 0.998627
-0.490147 -0.314280 0.033970 -0.072695 0.047548 0.996216
-0.545890 -0.250089 0.031770 -0.072054 0.025025 0.997070
-0.343553 -0.321069 0.048107 0.041688 -0.085452 0.995453
-0.357688 -0.270861 0.044825 -0.004303 -0.016907 0.999847
-0.352858 -0.244223 0.038615 -0.020142 0.020203 0.999573
-0.376305 -0.212696 0.036828 -0.042573 0.267190 0.962676
-0.353287 -0.184312 0.018992 -0.084964 0.535844 0.839991
-0.362952 -0.156150 0.002300 -0.017396 -0.185034 0.982543
-0.356601 -0.126781 0.040490 0.037233 -0.023377 0.999023
-0.298917 -0.435607 0.033113 0.008026 -0.051637 0.998627
-0.574596 -0.095560 -0.000068 -0.025636 0.644948 0.763756
-0.068799 -0.133989 0.027115 0.024903 0.533586 0.845332
-0.057521 -0.117729 0.014570 0.024873 -0.159703 0.986847
-0.054641 -0.110819 0.016331 -0.038026 0.208960 0.977172
-0.247102 -0.437073 0.036996 0.084292 0.019745 0.996216
-0.003152 -0.095559 -0.000244 0.014435 0.582141 0.812922
-0.229977 -0.277500 0.020144 0.136448 -0.162481 0.977203
-0.139906 -0.231933 0.037989 -0.029450 -0.122471 0.992004
-0.074729 -0.195627 0.038132 -0.048311 -0.055757 0.997253
-0.070257 -0.161826 0.045498 0.026246 0.318949 0.947386
-0.140270 -0.312408 0.001316 -0.034974 -0.108402 0.993469
-0.075134 -0.280595 0.030354 -0.145573 -0.115177 0.982604
-0.007201 -0.245151 0.047978 -0.065950 -0.032716 0.997284
0.041215 -0.212355 0.045430 0.201056 0.243171 0.948882
0.074594 -0.198679 0.027041 0.360485 0.304300 0.881680
0.086355 -0.175096 0.014529 0.000610 -0.050813 0.998688
0.180045 -0.161202 0.039303 0.055055 0.173162 0.983337
-0.159474 -0.502713 0.031964 0.006439 0.017884 0.999817
0.286262 -0.095545 -0.000244 0.276101 0.241401 0.930296
0.129100 -0.333370 0.026660 0.457656 0.133885 0.878964
0.149616 -0.324872 0.014125 0.124088 0.024964 0.991943
0.229059 -0.306952 0.033494 0.157628 -0.041658 0.986602
-0.124726 -0.645230 0.018503 -0.011353 -0.070284 0.997436
0.280999 -0.310873 -0.000800 0.450087 -0.007721 0.892941
-0.055156 -0.490739 0.040776 -0.097598 -0.007752 0.995178
0.000460 -0.417588 0.038445 -0.165197 -0.023774 0.985961
0.052130 -0.374057 0.047573 -0.053896 -0.020997 0.998321
0.095785 -0.347170 0.045024 0.256233 0.070376 0.964019
0.028880 -0.675009 0.033607 -0.064119 -0.032380 0.997406
0.086452 -0.573598 0.044941 -0.040956 -0.024689 0.998840
0.128420 -0.527320 0.044500 0.251534 0.005524 0.967803
0.159703 -0.493627 0.026208 0.492904 0.041871 0.869045
0.179130 -0.474025 0.013715 0.165014 0.006073 0.986267
0.228690 -0.481108 0.019055 0.124363 -0.037080 0.991516
-0.059562 -0.842282 0.001198 -0.073672 -0.016663 0.997131
0.276914 -0.458048 -0.001222 0.438063 -0.035737 0.898221
0.004112 -0.824712 0.018104 -0.205298 -0.020020 0.978484
0.204442 -1.112142 -0.002944 0.183538 0.010834 0.982940
0.235682 -1.099254 0.003826 0.109439 -0.006439 0.993957
-0.054449 -1.037319 0.011299 -0.071444 0.055696 0.995880
0.256470 -1.112038 -0.001646 0.334727 -0.007813 0.942259
0.019519 -1.173099 0.035163 -0.186804 0.024384 0.982086
0.052121 -1.200479 0.032622 -0.074923 0.022889 0.996918
0.088044 -1.174621 0.030217 0.026826 -0.009033 0.999573
0.140077 -1.182218 0.028112 0.225105 -0.021302 0.974090
0.187115 -1.139758 0.009668 0.387799 -0.010376 0.921659
0.046299 -1.474378 0.040391 0.124943 -0.138035 0.982482
0.081325 -1.494906 0.030640 0.155675 -0.139897 0.977844
0.135509 -1.503888 0.017531 0.221534 -0.102542 0.969726
0.165182 -1.523198 0.014289 -0.009095 0.037843 0.999237
0.197663 -1.536374 0.016838 0.131413 -0.103183 0.985931
-0.067072 -1.178649 0.024137 -0.026826 0.038911 0.998871
0.242325 -1.565107 -0.000442 0.271126 -0.206153 0.940184
-0.042020 -1.338879 0.021666 -0.031861 0.054353 0.997986
0.000646 -1.444974 0.043542 0.017151 0.030824 0.999359
-0.125593 -1.234935 0.027050 0.030366 0.051332 0.998199
-0.051773 -1.675474 0.015903 0.078585 -0.195227 0.977599
-0.027387 -1.686224 -0.000417 0.195196 -0.416639 0.887845
-0.128755 -1.414423 0.043317 0.009095 0.080203 0.996734
-0.166912 -1.538313 0.043612 0.038942 -0.009095 0.999176
-0.147157 -1.573427 0.043837 0.131382 -0.241401 0.961455
-0.111321 -1.612896 0.011953 0.133885 -0.283242 0.949644
-0.077392 -1.640013 0.015475 0.051943 -0.109104 0.992645
-0.064610 -1.651905 0.006327 0.010834 -0.019807 0.999725
-0.351647 -1.656418 0.045777 0.092959 -0.221686 0.970672
-0.337419 -1.715017 0.026534 0.156743 -0.341716 0.926603
-0.326370 -1.733674 0.008903 0.082797 -0.170415 0.981872
-0.316560 -1.766234 0.021270 0.028352 -0.036470 0.998901
-0.331261 -1.789739 0.009932 0.083285 -0.221747 0.971526
-0.183903 -1.224881 0.025574 -0.024903 0.050478 0.998413
-0.295328 -1.806973 -0.000153 0.157292 -0.387707 0.908231
-0.237256 -1.460625 0.038730 -0.008118 0.075686 0.997070
-0.310643 -1.602979 0.057260 0.044496 -0.037477 0.998291
-0.675636 -1.878901 0.019329 -0.013031 -0.087344 0.996063
-0.562789 -1.920109 0.000000 0.092288 -0.240120 0.966338
-0.237403 -1.199926 0.023280 -0.002258 0.040742 0.999146
-0.419200 -1.455788 0.038856 0.030763 0.071200 0.996979
-0.471565 -1.615011 0.054256 -0.029298 -0.044527 0.998566
-0.494686 -1.711172 0.043283 0.043825 -0.097812 0.994232
-0.540656 -1.761899 0.045560 -0.069338 -0.329997 0.941404
-0.563275 -1.796110 0.031084 -0.168645 -0.203040 0.964507
-0.593549 -1.827654 0.016105 -0.053865 -0.092227 0.994263
-0.679963 -1.559223 0.046228 -0.326304 -0.077395 0.942076
-0.692931 -1.591211 0.011172 -0.504990 -0.187292 0.842524
-0.707584 -1.602783 0.001668 -0.267006 -0.060549 0.961760
-0.746662 -1.623852 0.000711 -0.056764 0.012818 0.998291
-0.324148 -1.164904 0.021651 0.032167 0.048036 0.998321
-0.805552 -2.006341 0.000000 -0.069247 -0.063234 0.995575
-0.815488 -1.916399 0.000000 -0.130345 0.018769 0.991272
-0.446261 -1.344437 0.038458 0.034333 0.050966 0.998108
-0.579646 -1.478604 0.051254 -0.073489 0.016388 0.997131
-0.643847 -1.539293 0.039186 -0.029023 0.027833 0.999176
-0.364029 -1.057686 0.012851 0.039186 0.052187 0.997864
-0.482087 -1.183582 0.037039 0.055147 0.044984 0.997436
-0.621257 -1.292797 0.033905 -0.048433 0.024659 0.998505
-0.683657 -1.302784 0.024951 -0.073183 0.029633 0.996857
-0.737937 -1.287788 0.022336 -0.371075 -0.045351 0.927488
-0.774543 -1.241128 0.017853 -0.383618 -0.065859 0.921110
-0.796707 -1.211778 0.008082 -0.255257 -0.030366 0.966369
-0.814714 -1.193030 -0.003214 -0.240211 -0.015503 0.970580
-0.829543 -1.231197 -0.000858 -0.006378 0.003021 0.999969
4 0 1 2 3
4 4 5 6 7
4 8 4 7 9
4 10 8 9 11
4 12 10 11 13
4 14 12 13 15
4 16 14 15 17
3 18 19 20
4 21 16 17 22
4 5 18 20 6
4 6 20 23 24
4 7 6 24 25
4 9 7 25 26
4 11 9 26 27
4 13 11 27 28
4 15 13 28 29
4 17 15 29 30
3 20 19 23
4 22 17 30 31
4 28 27 32 33
4 29 28 33 34
4 30 29 34 35
3 23 19 36
4 31 30 35 37
4 24 23 36 38
4 25 24 38 39
4 26 25 39 40
4 27 26 40 32
4 39 38 41 42
4 40 39 42 43
4 32 40 43 44
4 33 32 44 45
4 34 33 45 46
4 35 34 46 47
3 36 19 48
4 37 35 47 49
4 38 36 48 41
4 46 45 50 51
4 47 46 51 52
3 48 19 53
4 49 47 52 54
4 41 48 53 55
4 42 41 55 56
4 43 42 56 57
4 44 43 57 58
4 45 44 58 50
4 56 55 59 60
4 57 56 60 61
4 58 57 61 62
4 50 58 62 63
4 51 50 63 64
4 52 51 64 65
3 53 19 66
4 54 52 65 67
4 55 53 66 59
4 64 63 68 69
4 65 64 69 70
3 66 19 71
4 67 65 70 72
4 59 66 71 73
4 60 59 73 74
4 61 60 74 75
4 62 61 75 76
4 63 62 76 68
4 75 74 77 78
4 76 75 78 79
4 68 76 79 80
4 69 68 80 81
4 70 69 81 82
3 71 19 83
4 72 70 82 84
4 73 71 83 85
4 74 73 85 77
4 82 81 86 87
3 83 19 88
4 84 82 87 89
4 85 83 88 90
4 77 85 90 91
4 78 77 91 92
4 79 78 92 93
4 80 79 93 94
4 81 80 94 86
4 93 92 95 96
4 94 93 96 97
4 86 94 97 98
4 87 86 98 99
3 88 19 100
4 89 87 99 101
4 90 88 100 102
4 91 90 102 103
4 92 91 103 95
3 100 19 104
4 101 99 105 106
4 102 100 104 107
4 103 102 107 108
4 95 103 108 109
4 96 95 109 110
4 97 96 110 111
4 98 97 111 112
4 99 98 112 105
4 110 109 113 114
4 111 110 114 115
4 112 111 115 116
4 105 112 116 117
3 104 19 118
4 106 105 117 119
4 107 104 118 120
4 108 107 120 121
4 109 108 121 113
4 119 117 122 123
4 120 118 124 125
4 121 120 125 126
4 113 121 126 127
4 114 113 127 128
4 115 114 128 129
4 116 115 129 130
4 117 116 130 122
3 118 19 124
4 129 128 131 132
4 130 129 132 133
4 122 130 133 134
3 124 19 135
4 136 122 134 137
4 125 124 135 138
4 126 125 138 139
4 127 126 139 140
4 128 127 140 131
4 138 135 141 142
4 139 138 142 143
4 140 139 143 144
4 131 140 144 145
4 132 131 145 146
4 133 132 146 147
4 134 133 147 148
3 135 19 141
4 137 134 148 149
4 146 145 10 12
4 147 146 12 14
4 148 147 14 16
3 141 19 18
4 149 148 16 21
4 142 141 18 5
4 143 142 5 4
4 144 143 4 8
4 145 144 8 10
3 123 122 136
